<svg width="111" height="127" viewBox="0 0 111 127" fill="none" xmlns="http://www.w3.org/2000/svg">
<mask id="path-1-outside-1_56_2394" maskUnits="userSpaceOnUse" x="-3.50205" y="-3.52179" width="176.251" height="133.667" fill="black">
<rect fill="white" x="-3.50205" y="-3.52179" width="176.251" height="133.667"/>
<path fill-rule="evenodd" clip-rule="evenodd" d="M136.326 75.0134C138.726 71.2098 140.477 66.9072 141.396 62.2294C145.386 41.9068 132.146 22.1973 111.823 18.207C96.2603 15.1513 81.0569 22.2001 72.9971 34.7962C69.5725 30.4649 64.6443 27.2873 58.8014 26.1401C45.7949 23.5863 33.1808 32.0599 30.627 45.0664C30.0064 48.2273 30.0371 51.365 30.6258 54.3407C18.4225 53.0836 7.05367 61.3209 4.64375 73.5948C2.08998 86.6013 10.5636 99.2154 23.5701 101.769L126.083 121.897C139.09 124.451 151.704 115.977 154.258 102.971C156.746 90.2989 148.766 77.9995 136.326 75.0134Z"/>
</mask>
<path fill-rule="evenodd" clip-rule="evenodd" d="M136.326 75.0134C138.726 71.2098 140.477 66.9072 141.396 62.2294C145.386 41.9068 132.146 22.1973 111.823 18.207C96.2603 15.1513 81.0569 22.2001 72.9971 34.7962C69.5725 30.4649 64.6443 27.2873 58.8014 26.1401C45.7949 23.5863 33.1808 32.0599 30.627 45.0664C30.0064 48.2273 30.0371 51.365 30.6258 54.3407C18.4225 53.0836 7.05367 61.3209 4.64375 73.5948C2.08998 86.6013 10.5636 99.2154 23.5701 101.769L126.083 121.897C139.09 124.451 151.704 115.977 154.258 102.971C156.746 90.2989 148.766 77.9995 136.326 75.0134Z" fill="#FFA252"/>
<path d="M136.326 75.0134L133.789 73.4125L131.555 76.9533L135.626 77.9305L136.326 75.0134ZM72.9971 34.7962L70.6438 36.6568L73.255 39.9593L75.5241 36.4131L72.9971 34.7962ZM30.6258 54.3407L30.3184 57.325L34.3566 57.741L33.5687 53.7585L30.6258 54.3407ZM138.452 61.6514C137.606 65.9604 135.994 69.9169 133.789 73.4125L138.863 76.6142C141.457 72.5027 143.349 67.8541 144.339 62.8074L138.452 61.6514ZM111.245 21.1508C129.942 24.8218 142.123 42.9546 138.452 61.6514L144.339 62.8074C148.649 40.859 134.35 19.5727 112.401 15.2632L111.245 21.1508ZM75.5241 36.4131C82.9421 24.8199 96.932 18.3405 111.245 21.1508L112.401 15.2632C95.5886 11.9621 79.1717 19.5802 70.4701 33.1793L75.5241 36.4131ZM75.3504 32.9355C71.4989 28.0643 65.9504 24.4865 59.3794 23.1963L58.2234 29.0839C63.3383 30.0882 67.6461 32.8655 70.6438 36.6568L75.3504 32.9355ZM59.3794 23.1963C44.7471 20.3233 30.5562 29.8561 27.6832 44.4884L33.5708 45.6444C35.8054 34.2638 46.8427 26.8493 58.2234 29.0839L59.3794 23.1963ZM27.6832 44.4884C26.9861 48.039 27.0196 51.5708 27.6828 54.923L33.5687 53.7585C33.0545 51.1591 33.0267 48.4156 33.5708 45.6444L27.6832 44.4884ZM30.9332 51.3565C17.2014 49.942 4.41144 59.207 1.69996 73.0168L7.58754 74.1728C9.6959 63.4348 19.6437 56.2253 30.3184 57.325L30.9332 51.3565ZM1.69996 73.0168C-1.17303 87.6491 8.35976 101.84 22.9921 104.713L24.1481 98.8254C12.7674 96.5908 5.353 85.5535 7.58754 74.1728L1.69996 73.0168ZM22.9921 104.713L125.505 124.841L126.661 118.953L24.1481 98.8254L22.9921 104.713ZM125.505 124.841C140.138 127.714 154.328 118.181 157.201 103.549L151.314 102.393C149.079 113.774 138.042 121.188 126.661 118.953L125.505 124.841ZM157.201 103.549C160.001 89.2922 151.024 75.4561 137.026 72.0962L135.626 77.9305C146.509 80.5428 153.491 91.3056 151.314 102.393L157.201 103.549Z" fill="black" mask="url(#path-1-outside-1_56_2394)"/>
<mask id="path-3-outside-2_56_2394" maskUnits="userSpaceOnUse" x="10.4282" y="16.8383" width="144.134" height="109.435" fill="black">
<rect fill="white" x="10.4282" y="16.8383" width="144.134" height="109.435"/>
<path fill-rule="evenodd" clip-rule="evenodd" d="M126.203 80.9864C128.218 77.7933 129.688 74.1812 130.459 70.2542C133.809 53.1932 122.694 36.6469 105.633 33.2971C92.5679 30.7318 79.8046 36.6493 73.0383 47.2238C70.1634 43.5876 66.0261 40.9201 61.1209 39.957C50.2019 37.8131 39.6123 44.9267 37.4684 55.8458C36.9474 58.4993 36.9731 61.1334 37.4673 63.6316C27.2226 62.5763 17.6784 69.4915 15.6553 79.7955C13.5114 90.7146 20.625 101.304 31.544 103.448L117.605 120.346C128.524 122.49 139.113 115.376 141.257 104.457C143.346 93.8187 136.647 83.4932 126.203 80.9864Z"/>
</mask>
<path fill-rule="evenodd" clip-rule="evenodd" d="M126.203 80.9864C128.218 77.7933 129.688 74.1812 130.459 70.2542C133.809 53.1932 122.694 36.6469 105.633 33.2971C92.5679 30.7318 79.8046 36.6493 73.0383 47.2238C70.1634 43.5876 66.0261 40.9201 61.1209 39.957C50.2019 37.8131 39.6123 44.9267 37.4684 55.8458C36.9474 58.4993 36.9731 61.1334 37.4673 63.6316C27.2226 62.5763 17.6784 69.4915 15.6553 79.7955C13.5114 90.7146 20.625 101.304 31.544 103.448L117.605 120.346C128.524 122.49 139.113 115.376 141.257 104.457C143.346 93.8187 136.647 83.4932 126.203 80.9864Z" fill="#FFA252"/>
<path d="M126.203 80.9864L125.358 80.4528L124.613 81.633L125.97 81.9588L126.203 80.9864ZM73.0383 47.2238L72.2539 47.844L73.1243 48.9449L73.8807 47.7628L73.0383 47.2238ZM37.4673 63.6316L37.3649 64.6263L38.711 64.765L38.4483 63.4375L37.4673 63.6316ZM129.478 70.0615C128.731 73.8656 127.308 77.3623 125.358 80.4528L127.049 81.52C129.129 78.2242 130.645 74.4969 131.441 70.4469L129.478 70.0615ZM105.44 34.2784C121.959 37.5218 132.721 53.5425 129.478 70.0615L131.441 70.4469C134.897 52.8439 123.429 35.7721 105.826 32.3158L105.44 34.2784ZM73.8807 47.7628C80.433 37.5226 92.7918 31.7949 105.44 34.2784L105.826 32.3158C92.344 29.6688 79.1762 35.776 72.196 46.6848L73.8807 47.7628ZM73.8228 46.6036C70.8055 42.7874 66.4615 39.9865 61.3136 38.9757L60.9283 40.9382C65.5908 41.8537 69.5213 44.3878 72.2539 47.844L73.8228 46.6036ZM61.3136 38.9757C49.8526 36.7254 38.7374 44.1921 36.4871 55.6531L38.4497 56.0384C40.4872 45.6613 50.5512 38.9007 60.9283 40.9382L61.3136 38.9757ZM36.4871 55.6531C35.9406 58.4366 35.9673 61.2021 36.4864 63.8257L38.4483 63.4375C37.9789 61.0648 37.9542 58.5621 38.4497 56.0384L36.4871 55.6531ZM37.5698 62.6369C26.8156 61.529 16.7977 68.7869 14.674 79.6029L16.6365 79.9882C18.5592 70.1961 27.6297 63.6235 37.3649 64.6263L37.5698 62.6369ZM14.674 79.6029C12.4237 91.0638 19.8904 102.179 31.3514 104.429L31.7367 102.467C21.3596 100.429 14.599 90.3653 16.6365 79.9882L14.674 79.6029ZM31.3514 104.429L117.412 121.327L117.797 119.364L31.7367 102.467L31.3514 104.429ZM117.412 121.327C128.873 123.577 139.988 116.11 142.238 104.65L140.276 104.264C138.238 114.641 128.174 121.402 117.797 119.364L117.412 121.327ZM142.238 104.65C144.431 93.4831 137.4 82.6455 126.437 80.014L125.97 81.9588C135.895 84.341 142.261 94.1543 140.276 104.264L142.238 104.65Z" fill="black" mask="url(#path-3-outside-2_56_2394)"/>
</svg>
