<svg width="120" height="177" viewBox="0 0 120 177" fill="none" xmlns="http://www.w3.org/2000/svg">
<path d="M36.6898 -56.4344L34.7801 -57.0234L6.7851 22.3907C6.41869 23.4301 4.88654 23.1992 4.84278 22.0979L1.49921 -62.0397L-0.499214 -62.0397L-3.84278 22.0979C-3.88654 23.1992 -5.41869 23.4301 -5.7851 22.3907L-33.7801 -57.0234L-35.6898 -56.4344L-14.0848 24.9508C-13.802 26.016 -15.198 26.6883 -15.8545 25.8031L-66.0135 -41.8312L-67.6647 -40.7055L-23.0309 30.6958C-22.4467 31.6304 -23.5825 32.6842 -24.4708 32.0319L-92.3369 -17.813L-93.5829 -16.2506L-29.8861 38.8225C-29.0524 39.5433 -29.8272 40.8852 -30.8682 40.5236L-110.411 12.8971L-111.141 14.7574L-34.0415 48.6087C-33.0323 49.0518 -33.3771 50.5624 -34.4785 50.5238L-118.631 47.5704L-118.78 49.5632L-35.1276 59.185C-34.0327 59.311 -33.917 60.8561 -34.9808 61.1438L-116.265 83.1259L-115.82 85.0742L-33.0481 69.6116C-31.9647 69.4092 -31.3987 70.8516 -32.3305 71.4401L-103.524 116.405L-102.525 118.135L-27.9877 78.962C-27.0121 78.4493 -26.046 79.6607 -26.763 80.4977L-81.5401 144.449L-80.0752 145.808L-20.396 86.4054C-19.6149 85.6279 -18.3347 86.5007 -18.7731 87.5119L-52.2666 164.768L-50.4661 165.635L-10.9477 91.2804C-10.4304 90.3072 -8.94981 90.7639 -9.07068 91.8594L-18.3045 175.556L-16.3284 175.853L-0.482132 93.1539C-0.274719 92.0715 1.27473 92.0715 1.48213 93.1539L17.3284 175.853L19.3045 175.556L10.0707 91.8594C9.94981 90.7639 11.4305 90.3072 11.9477 91.2804L51.4661 165.635L53.2666 164.768L19.7731 87.5119C19.3347 86.5007 20.6149 85.6279 21.396 86.4054L81.0752 145.808L82.5401 144.449L27.763 80.4977C27.0461 79.6607 28.0121 78.4493 28.9877 78.962L103.525 118.135L104.524 116.405L33.3305 71.4401C32.3987 70.8515 32.9647 69.4092 34.0481 69.6116L116.82 85.0742L117.265 83.1259L35.9808 61.1438C34.9169 60.8561 35.0327 59.311 36.1276 59.185L119.78 49.5632L119.631 47.5704L35.4785 50.5238C34.3771 50.5624 34.0323 49.0518 35.0415 48.6087L112.141 14.7574L111.411 12.8971L31.8683 40.5236C30.8271 40.8852 30.0524 39.5433 30.8861 38.8225L94.5829 -16.2506L93.3369 -17.813L25.4708 32.0319C24.5825 32.6842 23.4467 31.6303 24.0309 30.6958L68.6647 -40.7055L67.0135 -41.8312L16.8545 25.8031C16.198 26.6883 14.802 26.016 15.0848 24.9508L36.6898 -56.4344Z" fill="#D8C5FB" stroke="#9D88C1" stroke-width="2"/>
</svg>
